<svg width="120" height="120" viewBox="0 0 120 120" xmlns="http://www.w3.org/2000/svg">
  <!-- Background circle -->
  <circle cx="60" cy="60" r="55" fill="#374151" stroke="#4B5563" stroke-width="2"/>
  
  <!-- Checklist background -->
  <rect x="30" y="25" width="60" height="70" rx="8" fill="#4B5563" stroke="#6B7280" stroke-width="1"/>
  
  <!-- Header line -->
  <rect x="35" y="32" width="50" height="3" rx="1.5" fill="#10B981"/>
  
  <!-- Checklist items -->
  <!-- Item 1 - Completed -->
  <circle cx="40" cy="45" r="4" fill="#10B981" stroke="#059669" stroke-width="1"/>
  <path d="M37.5 45 L39.5 47 L42.5 43" stroke="white" stroke-width="2" stroke-linecap="round" stroke-linejoin="round" fill="none"/>
  <rect x="48" y="43" width="32" height="2" rx="1" fill="#9CA3AF"/>
  <rect x="48" y="46" width="20" height="2" rx="1" fill="#9CA3AF"/>
  
  <!-- Item 2 - Completed -->
  <circle cx="40" cy="60" r="4" fill="#10B981" stroke="#059669" stroke-width="1"/>
  <path d="M37.5 60 L39.5 62 L42.5 58" stroke="white" stroke-width="2" stroke-linecap="round" stroke-linejoin="round" fill="none"/>
  <rect x="48" y="58" width="28" height="2" rx="1" fill="#9CA3AF"/>
  <rect x="48" y="61" width="24" height="2" rx="1" fill="#9CA3AF"/>
  
  <!-- Item 3 - Pending -->
  <circle cx="40" cy="75" r="4" fill="none" stroke="#6B7280" stroke-width="2"/>
  <rect x="48" y="73" width="30" height="2" rx="1" fill="#6B7280"/>
  <rect x="48" y="76" width="18" height="2" rx="1" fill="#6B7280"/>
  
  <!-- Plus icon for adding new items -->
  <circle cx="75" cy="85" r="8" fill="#10B981"/>
  <path d="M71 85 L79 85 M75 81 L75 89" stroke="white" stroke-width="2" stroke-linecap="round"/>
  
  <!-- Subtle shadow effect -->
  <defs>
    <filter id="shadow" x="-20%" y="-20%" width="140%" height="140%">
      <feGaussianBlur in="SourceAlpha" stdDeviation="3"/>
      <feOffset dx="2" dy="2" result="offset"/>
      <feFlood flood-color="#000000" flood-opacity="0.3"/>
      <feComposite in2="offset" operator="in"/>
      <feMerge>
        <feMergeNode/>
        <feMergeNode in="SourceGraphic"/>
      </feMerge>
    </filter>
  </defs>
  
  <!-- Apply shadow to main elements -->
  <style>
    .main-elements {
      filter: url(#shadow);
    }
  </style>
</svg>